<svg xmlns="http://www.w3.org/2000/svg" viewBox="0 0 24 24" fill="currentColor">
  <path d="M2,9 L2,6.5 C2,4.01 4.01,2 6.5,2 L9,2 L9,4 L6.5,4 C5.12,4 4,5.12 4,6.5 L4,9 L2,9 Z M2,15 L2,17.5 C2,19.99 4.01,22 6.5,22 L9,22 L9,20 L6.5,20 C5.12,20 4,18.88 4,17.5 L4,15 L2,15 Z M15,2 L17.5,2 C19.99,2 22,4.01 22,6.5 L22,9 L20,9 L20,6.5 C20,5.12 18.88,4 17.5,4 L15,4 L15,2 Z M22,15 L22,17.5 C22,19.99 19.99,22 17.5,22 L15,22 L15,20 L17.5,20 C18.88,20 20,18.88 20,17.5 L20,15 L22,15 Z M6,11 L18,11 L18,13 L6,13 L6,11 Z"/>
</svg>